Coordinates
version=1
nRows=7
nColumns=33
inDegrees=yes

Units are S.I. units (second, meters, Newtons, ...)
Angles are in degrees.

endheader
time	ground_thorax_rot_x	ground_thorax_rot_y	ground_thorax_rot_z	ground_thorax_tx	ground_thorax_ty	ground_thorax_tz	clav_prot_r	clav_elev_r	scapula_abduction_r	scapula_elevation_r	scapula_upward_rot_r	scapula_winging_r	shoulder_elv_r	plane_of_elev_r	axial_rot_r	elbow_flexion_r	pro_sup_r	wrist_flex_r	wrist_dev_r	clav_prot_l	clav_elev_l	scapula_abduction_l	scapula_elevation_l	scapula_upward_rot_l	scapula_winging_l	shoulder_elv_l	plane_of_elev_l	axial_rot_l	elbow_flexion_l	pro_sup_l	wrist_flex_l	wrist_dev_l
     12.12000000	     32.91549668	     22.94482325	     30.01984677	   -111.65308494	    851.10483452	    -41.45381037	     12.39117953	     34.08637676	     25.78831866	     45.00000000	    -45.00000000	  -3329.29049378	  -1906.53146735	    158.64223472	     20.26908128	   2158.69149056	   -208.70988174	     13.13052320	     14.99859563	     -5.90018733	    -45.00000000	    -40.99825694	     45.00000000	    -45.00000000	  -3853.65791132	  -1346.99292825	     18.29924135	   -179.99999979	    372.34821959	    192.39567626	     13.83893690	    -14.54411071
     12.13000000	     32.97476851	     22.85084327	     29.98850484	   -112.14048837	    852.05697936	    -41.51244842	     12.33645353	     34.08960361	     25.90437890	     45.00000000	    -45.00000000	  -3329.34298866	  -1906.55841619	    158.66826379	     20.11975183	   2158.69402455	   -209.00177261	     13.17211281	     14.92405318	     -5.84102726	    -45.00000000	    -40.91505158	     45.00000000	    -45.00000000	  -3853.61445915	  -1346.91252368	     18.32523482	   -179.99999979	    372.37243562	    192.28285264	     13.87235980	    -14.59732558
     12.14000000	     32.98186124	     22.82794812	     29.90237181	   -112.58152428	    852.89556345	    -41.53401568	     12.37499419	     34.04869218	     25.71698983	     45.00000000	    -45.00000000	  -3329.36821238	  -1906.50127263	    158.58098585	     20.01245902	   2158.59371999	   -209.25807750	     13.20884491	     14.89241115	     -5.82721561	    -45.00000000	    -41.15879232	     45.00000000	    -45.00000000	  -3853.56790640	  -1346.99825205	     18.30707929	   -179.99999979	    372.26674191	    192.20003223	     13.87049015	    -14.66660548
     12.15000000	     32.97669016	     22.80643326	     29.94386096	   -112.97116177	    853.62216663	    -41.52353250	     12.22646777	     34.03493429	     25.78891743	     45.00000000	    -45.00000000	  -3329.39573926	  -1906.55511624	    158.65653238	     19.82629839	   2158.62089661	   -209.51767466	     13.26297649	     14.79346569	     -5.52444213	    -45.00000000	    -41.24851193	     45.00000000	    -45.00000000	  -3853.43750923	  -1347.03331610	     18.36707141	   -179.99999979	    372.30320565	    192.16860124	     13.90955121	    -14.74351776
     12.16000000	     32.99300446	     22.78177163	     29.85005487	   -113.30255869	    854.23738561	    -41.48646889	     12.29199637	     34.00036191	     25.54903137	     45.00000000	    -45.00000000	  -3329.38094040	  -1906.46157446	    158.53158974	     19.79428021	   2158.53958216	   -209.71649642	     13.27976656	     14.77326667	     -5.66396234	    -45.00000000	    -41.41069102	     45.00000000	    -45.00000000	  -3853.49981206	  -1347.05879776	     18.27522745	   -179.99999979	    372.22345049	    192.17347687	     13.86310198	    -14.81301909
     12.17000000	     33.05430317	     22.66959381	     29.89154572	   -113.56849330	    854.74043892	    -41.42822723	     12.15263934	     33.99779515	     25.83383932	     45.00000000	    -45.00000000	  -3329.43242281	  -1906.57326050	    158.66515929	     19.62584496	   2158.59693335	   -209.92724071	     13.36468345	     14.62633374	     -5.43189283	    -45.00000000	    -41.17224450	     45.00000000	    -45.00000000	  -3853.39485964	  -1347.01354629	     18.47030170	   -179.99999979	    372.32642761	    192.25014389	     13.91501596	    -14.91010147
     12.18000000	     32.98244103	     22.71010668	     29.86814907	   -113.76657140	    855.13653620	    -41.35280612	     12.27484622	     33.98167126	     25.44947865	     45.00000000	    -45.00000000	  -3329.36497248	  -1906.44174782	    158.51335230	     19.64850780	   2158.50421340	   -210.05216922	     13.35400660	     14.64217454	     -5.69809620	    -45.00000000	    -41.54863936	     45.00000000	    -45.00000000	  -3853.50620916	  -1347.05999144	     18.19274707	   -179.99999979	    372.19071564	    192.36927553	     13.78610306	    -15.01146939
